<mxfile host="app.diagrams.net" modified="2020-10-14T10:52:05.049Z" agent="5.0 (Macintosh; Intel Mac OS X 10_14_6) AppleWebKit/537.36 (KHTML, like Gecko) Chrome/86.0.4240.75 Safari/537.36" etag="aaOpcePdTcYxFmDq3Bw-" version="13.7.9" type="github" pages="3">
  <diagram id="VsP0TjxbDdxosoxRiDIv" name="主流程">
    <mxGraphModel dx="807" dy="459" grid="0" gridSize="10" guides="1" tooltips="1" connect="1" arrows="1" fold="1" page="1" pageScale="1" pageWidth="827" pageHeight="1169" math="0" shadow="0">
      <root>
        <mxCell id="0" />
        <mxCell id="1" parent="0" />
        <mxCell id="12INalmqIbci3x5uMSme-3" value="" style="edgeStyle=orthogonalEdgeStyle;rounded=0;orthogonalLoop=1;jettySize=auto;html=1;" edge="1" parent="1" source="12INalmqIbci3x5uMSme-1" target="12INalmqIbci3x5uMSme-2">
          <mxGeometry relative="1" as="geometry" />
        </mxCell>
        <mxCell id="12INalmqIbci3x5uMSme-1" value="开始" style="strokeWidth=2;html=1;shape=mxgraph.flowchart.start_1;whiteSpace=wrap;" vertex="1" parent="1">
          <mxGeometry x="294" y="176" width="100" height="60" as="geometry" />
        </mxCell>
        <mxCell id="12INalmqIbci3x5uMSme-5" value="" style="edgeStyle=orthogonalEdgeStyle;rounded=0;orthogonalLoop=1;jettySize=auto;html=1;" edge="1" parent="1" source="12INalmqIbci3x5uMSme-2" target="12INalmqIbci3x5uMSme-4">
          <mxGeometry relative="1" as="geometry" />
        </mxCell>
        <mxCell id="12INalmqIbci3x5uMSme-2" value="组装聚合报备数据" style="whiteSpace=wrap;html=1;strokeWidth=2;" vertex="1" parent="1">
          <mxGeometry x="284" y="260" width="121" height="43" as="geometry" />
        </mxCell>
        <mxCell id="12INalmqIbci3x5uMSme-7" value="" style="edgeStyle=orthogonalEdgeStyle;rounded=0;orthogonalLoop=1;jettySize=auto;html=1;" edge="1" parent="1" source="12INalmqIbci3x5uMSme-4" target="12INalmqIbci3x5uMSme-6">
          <mxGeometry relative="1" as="geometry" />
        </mxCell>
        <mxCell id="12INalmqIbci3x5uMSme-4" value="分别进行报备，失败互不影响" style="whiteSpace=wrap;html=1;strokeWidth=2;" vertex="1" parent="1">
          <mxGeometry x="284" y="327" width="121.5" height="51" as="geometry" />
        </mxCell>
        <mxCell id="12INalmqIbci3x5uMSme-9" value="" style="edgeStyle=orthogonalEdgeStyle;rounded=0;orthogonalLoop=1;jettySize=auto;html=1;" edge="1" parent="1" source="12INalmqIbci3x5uMSme-6" target="12INalmqIbci3x5uMSme-8">
          <mxGeometry relative="1" as="geometry" />
        </mxCell>
        <mxCell id="12INalmqIbci3x5uMSme-12" value="是" style="edgeLabel;html=1;align=center;verticalAlign=middle;resizable=0;points=[];" vertex="1" connectable="0" parent="12INalmqIbci3x5uMSme-9">
          <mxGeometry x="0.5135" y="6" relative="1" as="geometry">
            <mxPoint x="-11" y="-5" as="offset" />
          </mxGeometry>
        </mxCell>
        <mxCell id="12INalmqIbci3x5uMSme-15" style="edgeStyle=orthogonalEdgeStyle;rounded=0;orthogonalLoop=1;jettySize=auto;html=1;exitX=1;exitY=0.5;exitDx=0;exitDy=0;entryX=1;entryY=0.5;entryDx=0;entryDy=0;" edge="1" parent="1" source="12INalmqIbci3x5uMSme-6" target="12INalmqIbci3x5uMSme-10">
          <mxGeometry relative="1" as="geometry" />
        </mxCell>
        <mxCell id="12INalmqIbci3x5uMSme-16" value="否" style="edgeLabel;html=1;align=center;verticalAlign=middle;resizable=0;points=[];" vertex="1" connectable="0" parent="12INalmqIbci3x5uMSme-15">
          <mxGeometry x="-0.2375" y="-1" relative="1" as="geometry">
            <mxPoint as="offset" />
          </mxGeometry>
        </mxCell>
        <mxCell id="12INalmqIbci3x5uMSme-6" value="是否有一个报备成功" style="rhombus;whiteSpace=wrap;html=1;strokeWidth=2;" vertex="1" parent="1">
          <mxGeometry x="282.63" y="411" width="124.25" height="56.5" as="geometry" />
        </mxCell>
        <mxCell id="12INalmqIbci3x5uMSme-11" value="" style="edgeStyle=orthogonalEdgeStyle;rounded=0;orthogonalLoop=1;jettySize=auto;html=1;" edge="1" parent="1" source="12INalmqIbci3x5uMSme-8" target="12INalmqIbci3x5uMSme-10">
          <mxGeometry relative="1" as="geometry" />
        </mxCell>
        <mxCell id="12INalmqIbci3x5uMSme-8" value="聚合报备" style="whiteSpace=wrap;html=1;strokeWidth=2;" vertex="1" parent="1">
          <mxGeometry x="284" y="494" width="122.01" height="30" as="geometry" />
        </mxCell>
        <mxCell id="12INalmqIbci3x5uMSme-10" value="结束" style="ellipse;whiteSpace=wrap;html=1;strokeWidth=2;" vertex="1" parent="1">
          <mxGeometry x="299.01" y="553" width="92" height="37" as="geometry" />
        </mxCell>
      </root>
    </mxGraphModel>
  </diagram>
  <diagram id="loVIt0BXPaJ4-rS_2NND" name="等待通知">
    <mxGraphModel dx="807" dy="459" grid="0" gridSize="10" guides="1" tooltips="1" connect="1" arrows="1" fold="1" page="1" pageScale="1" pageWidth="827" pageHeight="1169" math="0" shadow="0">
      <root>
        <mxCell id="UGu4NYYpyM2OCp5MHmZj-0" />
        <mxCell id="UGu4NYYpyM2OCp5MHmZj-1" parent="UGu4NYYpyM2OCp5MHmZj-0" />
        <mxCell id="kuf9T7Gr4KqVFJNRyqWz-0" style="edgeStyle=orthogonalEdgeStyle;rounded=0;orthogonalLoop=1;jettySize=auto;html=1;exitX=0.5;exitY=1;exitDx=0;exitDy=0;exitPerimeter=0;" parent="UGu4NYYpyM2OCp5MHmZj-1" source="BhZa5ttN8Q9N9yM1D1aI-0" target="kuf9T7Gr4KqVFJNRyqWz-2" edge="1">
          <mxGeometry relative="1" as="geometry">
            <mxPoint x="356.375" y="101" as="targetPoint" />
          </mxGeometry>
        </mxCell>
        <mxCell id="BhZa5ttN8Q9N9yM1D1aI-0" value="开始" style="strokeWidth=2;html=1;shape=mxgraph.flowchart.start_1;whiteSpace=wrap;" parent="UGu4NYYpyM2OCp5MHmZj-1" vertex="1">
          <mxGeometry x="310" y="41" width="95" height="32" as="geometry" />
        </mxCell>
        <mxCell id="BhZa5ttN8Q9N9yM1D1aI-1" value="接受队列消息" style="strokeWidth=2;html=1;shape=mxgraph.flowchart.annotation_1;align=left;pointerEvents=1;" parent="UGu4NYYpyM2OCp5MHmZj-1" vertex="1">
          <mxGeometry x="449" y="31" width="54" height="53" as="geometry" />
        </mxCell>
        <mxCell id="vfAL0i21qyMoTU16Agz6-2" style="edgeStyle=orthogonalEdgeStyle;rounded=0;orthogonalLoop=1;jettySize=auto;html=1;exitX=0.5;exitY=1;exitDx=0;exitDy=0;" parent="UGu4NYYpyM2OCp5MHmZj-1" source="vfAL0i21qyMoTU16Agz6-1" target="vfAL0i21qyMoTU16Agz6-3" edge="1">
          <mxGeometry relative="1" as="geometry">
            <mxPoint x="358" y="172" as="targetPoint" />
          </mxGeometry>
        </mxCell>
        <mxCell id="vfAL0i21qyMoTU16Agz6-1" value="根据通知装填更新本地记录" style="rounded=1;whiteSpace=wrap;html=1;absoluteArcSize=1;arcSize=14;strokeWidth=2;" parent="UGu4NYYpyM2OCp5MHmZj-1" vertex="1">
          <mxGeometry x="306.5" y="207" width="98.5" height="46" as="geometry" />
        </mxCell>
        <mxCell id="vfAL0i21qyMoTU16Agz6-3" value="结束" style="strokeWidth=2;html=1;shape=mxgraph.flowchart.terminator;whiteSpace=wrap;" parent="UGu4NYYpyM2OCp5MHmZj-1" vertex="1">
          <mxGeometry x="317.13" y="288" width="77.25" height="54" as="geometry" />
        </mxCell>
        <mxCell id="kuf9T7Gr4KqVFJNRyqWz-3" style="edgeStyle=orthogonalEdgeStyle;rounded=0;orthogonalLoop=1;jettySize=auto;html=1;exitX=1;exitY=0.5;exitDx=0;exitDy=0;exitPerimeter=0;" parent="UGu4NYYpyM2OCp5MHmZj-1" source="kuf9T7Gr4KqVFJNRyqWz-2" target="kuf9T7Gr4KqVFJNRyqWz-4" edge="1">
          <mxGeometry relative="1" as="geometry">
            <mxPoint x="467" y="131" as="targetPoint" />
          </mxGeometry>
        </mxCell>
        <mxCell id="kuf9T7Gr4KqVFJNRyqWz-5" value="是" style="edgeLabel;html=1;align=center;verticalAlign=middle;resizable=0;points=[];" parent="kuf9T7Gr4KqVFJNRyqWz-3" vertex="1" connectable="0">
          <mxGeometry x="-0.3119" y="1" relative="1" as="geometry">
            <mxPoint as="offset" />
          </mxGeometry>
        </mxCell>
        <mxCell id="kuf9T7Gr4KqVFJNRyqWz-6" style="edgeStyle=orthogonalEdgeStyle;rounded=0;orthogonalLoop=1;jettySize=auto;html=1;exitX=0.5;exitY=1;exitDx=0;exitDy=0;exitPerimeter=0;" parent="UGu4NYYpyM2OCp5MHmZj-1" source="kuf9T7Gr4KqVFJNRyqWz-2" target="vfAL0i21qyMoTU16Agz6-1" edge="1">
          <mxGeometry relative="1" as="geometry" />
        </mxCell>
        <mxCell id="kuf9T7Gr4KqVFJNRyqWz-7" value="否" style="edgeLabel;html=1;align=center;verticalAlign=middle;resizable=0;points=[];" parent="kuf9T7Gr4KqVFJNRyqWz-6" vertex="1" connectable="0">
          <mxGeometry x="-0.2548" y="-4" relative="1" as="geometry">
            <mxPoint as="offset" />
          </mxGeometry>
        </mxCell>
        <mxCell id="kuf9T7Gr4KqVFJNRyqWz-2" value="&lt;span&gt;本地记录是否成功&lt;/span&gt;" style="strokeWidth=2;html=1;shape=mxgraph.flowchart.decision;whiteSpace=wrap;" parent="UGu4NYYpyM2OCp5MHmZj-1" vertex="1">
          <mxGeometry x="289.38" y="95" width="136.25" height="72" as="geometry" />
        </mxCell>
        <mxCell id="kuf9T7Gr4KqVFJNRyqWz-4" value="结束" style="strokeWidth=2;html=1;shape=mxgraph.flowchart.terminator;whiteSpace=wrap;" parent="UGu4NYYpyM2OCp5MHmZj-1" vertex="1">
          <mxGeometry x="464" y="106" width="73" height="50" as="geometry" />
        </mxCell>
      </root>
    </mxGraphModel>
  </diagram>
  <diagram id="VzKL99iHZ1cUAM-DFjIV" name="定时补偿">
    <mxGraphModel dx="807" dy="459" grid="0" gridSize="10" guides="1" tooltips="1" connect="1" arrows="1" fold="1" page="1" pageScale="1" pageWidth="827" pageHeight="1169" math="0" shadow="0">
      <root>
        <mxCell id="SAEZo7dMPPtvBQznHzzg-0" />
        <mxCell id="SAEZo7dMPPtvBQznHzzg-1" parent="SAEZo7dMPPtvBQznHzzg-0" />
        <mxCell id="SAEZo7dMPPtvBQznHzzg-4" style="edgeStyle=orthogonalEdgeStyle;rounded=0;orthogonalLoop=1;jettySize=auto;html=1;exitX=0.5;exitY=1;exitDx=0;exitDy=0;exitPerimeter=0;" parent="SAEZo7dMPPtvBQznHzzg-1" source="SAEZo7dMPPtvBQznHzzg-2" target="SAEZo7dMPPtvBQznHzzg-5" edge="1">
          <mxGeometry relative="1" as="geometry">
            <mxPoint x="380" y="121" as="targetPoint" />
          </mxGeometry>
        </mxCell>
        <mxCell id="SAEZo7dMPPtvBQznHzzg-2" value="开始" style="strokeWidth=2;html=1;shape=mxgraph.flowchart.start_1;whiteSpace=wrap;" parent="SAEZo7dMPPtvBQznHzzg-1" vertex="1">
          <mxGeometry x="330" y="30" width="100" height="60" as="geometry" />
        </mxCell>
        <mxCell id="SAEZo7dMPPtvBQznHzzg-3" value="定时任务" style="strokeWidth=2;html=1;shape=mxgraph.flowchart.annotation_1;align=left;pointerEvents=1;" parent="SAEZo7dMPPtvBQznHzzg-1" vertex="1">
          <mxGeometry x="476" y="32" width="55" height="46" as="geometry" />
        </mxCell>
        <mxCell id="SAEZo7dMPPtvBQznHzzg-7" style="edgeStyle=orthogonalEdgeStyle;rounded=0;orthogonalLoop=1;jettySize=auto;html=1;exitX=0.5;exitY=1;exitDx=0;exitDy=0;entryX=0.5;entryY=0;entryDx=0;entryDy=0;entryPerimeter=0;" parent="SAEZo7dMPPtvBQznHzzg-1" source="SAEZo7dMPPtvBQznHzzg-5" target="SAEZo7dMPPtvBQznHzzg-8" edge="1">
          <mxGeometry relative="1" as="geometry">
            <mxPoint x="378.5" y="192" as="targetPoint" />
          </mxGeometry>
        </mxCell>
        <mxCell id="SAEZo7dMPPtvBQznHzzg-5" value="查询本地失败记录" style="rounded=1;whiteSpace=wrap;html=1;absoluteArcSize=1;arcSize=14;strokeWidth=2;" parent="SAEZo7dMPPtvBQznHzzg-1" vertex="1">
          <mxGeometry x="328.5" y="126" width="103" height="41" as="geometry" />
        </mxCell>
        <mxCell id="SAEZo7dMPPtvBQznHzzg-9" style="edgeStyle=orthogonalEdgeStyle;rounded=0;orthogonalLoop=1;jettySize=auto;html=1;exitX=1;exitY=0.5;exitDx=0;exitDy=0;exitPerimeter=0;" parent="SAEZo7dMPPtvBQznHzzg-1" source="SAEZo7dMPPtvBQznHzzg-8" target="SAEZo7dMPPtvBQznHzzg-10" edge="1">
          <mxGeometry relative="1" as="geometry">
            <mxPoint x="510" y="242" as="targetPoint" />
          </mxGeometry>
        </mxCell>
        <mxCell id="SAEZo7dMPPtvBQznHzzg-11" value="是" style="edgeLabel;html=1;align=center;verticalAlign=middle;resizable=0;points=[];" parent="SAEZo7dMPPtvBQznHzzg-9" vertex="1" connectable="0">
          <mxGeometry x="0.009" y="-1" relative="1" as="geometry">
            <mxPoint x="-1" y="-1" as="offset" />
          </mxGeometry>
        </mxCell>
        <mxCell id="SAEZo7dMPPtvBQznHzzg-12" style="edgeStyle=orthogonalEdgeStyle;rounded=0;orthogonalLoop=1;jettySize=auto;html=1;exitX=0.5;exitY=1;exitDx=0;exitDy=0;exitPerimeter=0;" parent="SAEZo7dMPPtvBQznHzzg-1" source="SAEZo7dMPPtvBQznHzzg-8" target="SAEZo7dMPPtvBQznHzzg-13" edge="1">
          <mxGeometry relative="1" as="geometry">
            <mxPoint x="380" y="334" as="targetPoint" />
          </mxGeometry>
        </mxCell>
        <mxCell id="SAEZo7dMPPtvBQznHzzg-14" value="否" style="edgeLabel;html=1;align=center;verticalAlign=middle;resizable=0;points=[];" parent="SAEZo7dMPPtvBQznHzzg-12" vertex="1" connectable="0">
          <mxGeometry x="-0.3182" y="-4" relative="1" as="geometry">
            <mxPoint as="offset" />
          </mxGeometry>
        </mxCell>
        <mxCell id="SAEZo7dMPPtvBQznHzzg-8" value="查询报备接口记录，是否成功状态" style="strokeWidth=2;html=1;shape=mxgraph.flowchart.decision;whiteSpace=wrap;" parent="SAEZo7dMPPtvBQznHzzg-1" vertex="1">
          <mxGeometry x="295" y="192" width="170" height="99" as="geometry" />
        </mxCell>
        <mxCell id="SAEZo7dMPPtvBQznHzzg-17" style="edgeStyle=orthogonalEdgeStyle;rounded=0;orthogonalLoop=1;jettySize=auto;html=1;exitX=0.5;exitY=1;exitDx=0;exitDy=0;entryX=1;entryY=0.5;entryDx=0;entryDy=0;entryPerimeter=0;" parent="SAEZo7dMPPtvBQznHzzg-1" source="SAEZo7dMPPtvBQznHzzg-10" target="SAEZo7dMPPtvBQznHzzg-16" edge="1">
          <mxGeometry relative="1" as="geometry" />
        </mxCell>
        <mxCell id="SAEZo7dMPPtvBQznHzzg-10" value="更新本地记录状态为成功" style="rounded=1;whiteSpace=wrap;html=1;absoluteArcSize=1;arcSize=14;strokeWidth=2;" parent="SAEZo7dMPPtvBQznHzzg-1" vertex="1">
          <mxGeometry x="520" y="192" width="100" height="100" as="geometry" />
        </mxCell>
        <mxCell id="SAEZo7dMPPtvBQznHzzg-15" style="edgeStyle=orthogonalEdgeStyle;rounded=0;orthogonalLoop=1;jettySize=auto;html=1;exitX=0.5;exitY=1;exitDx=0;exitDy=0;" parent="SAEZo7dMPPtvBQznHzzg-1" source="SAEZo7dMPPtvBQznHzzg-13" target="SAEZo7dMPPtvBQznHzzg-16" edge="1">
          <mxGeometry relative="1" as="geometry">
            <mxPoint x="379" y="412" as="targetPoint" />
          </mxGeometry>
        </mxCell>
        <mxCell id="SAEZo7dMPPtvBQznHzzg-13" value="调用报备新增/修改接口" style="rounded=1;whiteSpace=wrap;html=1;absoluteArcSize=1;arcSize=14;strokeWidth=2;" parent="SAEZo7dMPPtvBQznHzzg-1" vertex="1">
          <mxGeometry x="330" y="320" width="98" height="57" as="geometry" />
        </mxCell>
        <mxCell id="SAEZo7dMPPtvBQznHzzg-16" value="结束" style="strokeWidth=2;html=1;shape=mxgraph.flowchart.terminator;whiteSpace=wrap;" parent="SAEZo7dMPPtvBQznHzzg-1" vertex="1">
          <mxGeometry x="328" y="412" width="100" height="60" as="geometry" />
        </mxCell>
      </root>
    </mxGraphModel>
  </diagram>
</mxfile>
